<svg width="36" height="36" viewBox="0 0 36 36" fill="none" xmlns="http://www.w3.org/2000/svg">
<path fill-rule="evenodd" clip-rule="evenodd" d="M0 18C0 8.05887 8.05887 0 18 0C27.9411 0 36 8.05887 36 18C36 27.9411 27.9411 36 18 36C8.05887 36 0 27.9411 0 18ZM22.6818 14.4642C22.803 14.4642 22.923 14.4654 23.0424 14.472C22.4112 11.0322 18.8586 8.4 14.571 8.4C9.837 8.4 6 11.6094 6 15.5682C6 17.8896 7.3188 19.953 9.3642 21.2628L9.4428 21.3126L8.6148 23.9064L11.7132 22.3284C11.7132 22.3284 11.8104 22.356 11.859 22.3704C12.7104 22.6074 13.6236 22.7358 14.571 22.7358C14.7642 22.7358 14.9562 22.728 15.147 22.7184C14.9712 22.173 14.8746 21.6 14.8746 21.0084C14.8746 17.3934 18.3714 14.4642 22.6818 14.4642ZM22.7473 27.1069C18.7477 27.1069 15.5047 24.3955 15.5047 21.0505C15.5047 17.7067 18.7477 14.9953 22.7473 14.9953C26.7451 14.9953 29.9869 17.7067 29.9869 21.0505C29.9869 23.0125 28.8721 24.7555 27.1447 25.8619L27.0781 25.9033L27.7777 28.0957L25.1611 26.7613C25.1611 26.7613 25.0789 26.7859 25.0375 26.7967C24.3187 26.9977 23.5471 27.1069 22.7473 27.1069Z" fill="#71C4E0"/>
<path d="M17.5536 11.9346C18.2184 11.9346 18.7566 12.4554 18.7566 13.0992C18.7566 13.7424 18.2184 14.265 17.5536 14.265C16.8882 14.265 16.3506 13.7424 16.3506 13.0992C16.3506 12.4554 16.8882 11.9346 17.5536 11.9346Z" fill="#71C4E0"/>
<path d="M24.249 18.9642C24.249 18.4218 24.7038 17.9808 25.2654 17.9808C25.8276 17.9808 26.2824 18.4218 26.2824 18.9642C26.2824 19.509 25.8276 19.9506 25.2654 19.9506C24.7038 19.9506 24.249 19.509 24.249 18.9642Z" fill="#71C4E0"/>
<path d="M19.2097 18.9642C19.2097 18.4218 19.6657 17.9808 20.2267 17.9808C20.7889 17.9808 21.2443 18.4218 21.2443 18.9642C21.2443 19.509 20.7889 19.9506 20.2267 19.9506C19.6657 19.9506 19.2097 19.509 19.2097 18.9642Z" fill="#71C4E0"/>
<path d="M11.5884 14.265C10.9236 14.265 10.3848 13.7424 10.3848 13.0992C10.3848 12.4554 10.9236 11.9346 11.5884 11.9346C12.2532 11.9346 12.7932 12.4554 12.7932 13.0992C12.7932 13.7424 12.2532 14.265 11.5884 14.265Z" fill="#71C4E0"/>
</svg>
