<svg width="36" height="36" viewBox="0 0 36 36" fill="none" xmlns="http://www.w3.org/2000/svg">
<path fill-rule="evenodd" clip-rule="evenodd" d="M0 18C0 27.9411 8.05887 36 18 36C27.9411 36 36 27.9411 36 18C36 8.05887 27.9411 0 18 0C8.05887 0 0 8.05887 0 18ZM23.2093 17.9401L23.2168 17.9424C24.4407 18.3261 25.8029 19.2542 25.8 20.8902C25.8 23.5941 21.9429 27 16.144 27C11.722 27 7.2 24.8315 7.2 21.268C7.2 19.4029 8.36802 17.2463 10.3775 15.2147C13.0636 12.4989 16.197 11.2615 17.3738 12.4543C17.8916 12.9808 17.9416 13.888 17.6092 14.9738C17.4326 15.5181 18.1152 15.2177 18.1152 15.2177C20.2865 14.2985 22.1812 14.245 22.8726 15.2444C23.2433 15.7799 23.208 16.5265 22.8667 17.3921C22.7121 17.7874 22.9133 17.8492 23.2093 17.9401ZM27.2817 11.4289C25.8197 9.90393 23.6635 9.32342 21.6733 9.72198C21.2125 9.8144 20.9208 10.2418 21.019 10.6722C21.1173 11.1054 21.5688 11.3798 22.0295 11.2873C23.4455 11.0043 24.9781 11.4173 26.0163 12.5004C27.0544 13.5834 27.337 15.0593 26.8916 16.3531C26.7473 16.7748 26.993 17.2254 27.4414 17.3611C27.8898 17.4968 28.369 17.2658 28.5133 16.847V16.8441C29.1399 15.0275 28.7437 12.9509 27.2817 11.4289ZM22.2025 12.6634C23.2059 12.4576 24.2952 12.7542 25.0342 13.5322C25.7732 14.3102 25.9707 15.3698 25.6554 16.2991C25.5248 16.6806 25.098 16.8864 24.6966 16.7653C24.2952 16.6412 24.0786 16.2325 24.2061 15.8541C24.3621 15.4001 24.2634 14.8824 23.9035 14.501C23.5435 14.1226 23.0084 13.9772 22.5178 14.0771C22.1101 14.1619 21.7056 13.9137 21.6164 13.5232C21.5304 13.1326 21.7916 12.7452 22.2025 12.6634Z" fill="#71C4E0"/>
<path fill-rule="evenodd" clip-rule="evenodd" d="M9.35063 22.1187C9.58012 24.4597 12.6281 26.0749 16.1587 25.7209C19.6863 25.3699 22.3636 23.1836 22.1311 20.8396C21.9046 18.4986 18.8566 16.8834 15.326 17.2374C11.7985 17.5914 9.12115 19.7747 9.35063 22.1187ZM12.3111 21.2289C13.0881 19.7248 15.1089 18.8727 16.8979 19.3182C18.7495 19.7757 19.6956 21.4412 18.9374 23.0619C18.1698 24.7154 15.9642 25.6005 14.0907 25.0234C12.2861 24.4672 11.5185 22.7628 12.3111 21.2289Z" fill="#71C4E0"/>
<path d="M16.7318 21.7702C16.6002 21.9855 16.3088 22.0871 16.0833 21.9974C15.8577 21.9107 15.7888 21.6685 15.9172 21.4592C16.0488 21.2499 16.3276 21.1482 16.5501 21.232C16.7756 21.3097 16.8571 21.5519 16.7318 21.7702Z" fill="#71C4E0"/>
<path d="M15.532 23.2353C15.1685 23.7885 14.3884 24.0307 13.8026 23.7765C13.2261 23.5254 13.0538 22.8825 13.4172 22.3413C13.7775 21.803 14.5294 21.5638 15.1121 21.797C15.7011 22.0392 15.8891 22.6761 15.532 23.2353Z" fill="#71C4E0"/>
</svg>
